<?xml version="1.0" encoding="utf-8"?>
<!-- Generator: Adobe Illustrator 25.4.1, SVG Export Plug-In . SVG Version: 6.00 Build 0)  -->
<svg version="1.1" id="Layer_2" xmlns="http://www.w3.org/2000/svg" xmlns:xlink="http://www.w3.org/1999/xlink" x="0px" y="0px"
	 viewBox="0 0 42 43" style="enable-background:new 0 0 42 43;" xml:space="preserve">
<style type="text/css">
	.st0{fill:none;stroke:#204050;stroke-width:2;stroke-miterlimit:10;}
</style>
<g>
	<path class="st0" d="M10.4,2.7c3.1-0.7,6.6-0.6,9.8-0.6c3.4,0,6.8,0,10.2-0.1c2.1,0,4.4,1,6,2.3c1.5,1.2,2.7,2.8,3.2,4.6
		c0.7,2.3,0.8,5.1,0.8,7.5c0,2.9,0,5.7,0.1,8.6c0,2.2,0,4.4-0.4,6.6c-0.4,2.2-1.3,4.3-2.8,5.9c-1.5,1.5-3.6,2.4-5.7,2.9
		c-3.2,0.7-6.4,0.4-9.6,0.5c-4.7,0-9.4,0.3-14-0.9c-3.8-1-6-4.4-6.3-8.1C1.5,28.3,1,24.4,1.3,20.8c0.2-3.6-0.4-7.6,0.7-11
		C3.2,6.3,6.8,3.5,10.4,2.7z"/>
	<path class="st0" d="M31.2,12.3c1.2,0.5,2.8,0,3.4-1.2c0.2-0.3,0.3-0.6,0.3-1c0-0.3,0-0.7-0.1-1c-0.2-0.7-0.5-1.4-1.1-1.8
		c-0.7-0.5-1.6-0.6-2.4-0.3c-1,0.4-1.9,1.5-1.9,2.6C29.5,10.8,30.2,11.9,31.2,12.3z"/>
	<path class="st0" d="M16.9,30.7c3.9,1.8,8.9,0.7,11.7-2.5c2.8-3.2,3-7.9,1.1-11.6c-1.9-3.6-6.7-5.5-10.7-4.7
		c-3.8,0.8-7.7,4.3-7.8,8.4C11,24.5,12.8,28.8,16.9,30.7z"/>
</g>
</svg>
