<svg width="60px" height="60px" viewBox="0 0 60 60" version="1.1" xmlns="http://www.w3.org/2000/svg" xmlns:xlink="http://www.w3.org/1999/xlink">
    <!-- Generator: Sketch 53.2 (72643) - https://sketchapp.com -->
    <title>Fill 18</title>
    <desc>Created with Sketch.</desc>
    <g id="Symbols" stroke="none" stroke-width="1" fill="none" fill-rule="evenodd">
        <g id="nav-dark" transform="translate(0.000000, -7.000000)" fill="#CCAB88">
            <g id="nav" transform="translate(0.000000, 7.000000)">
                <g id="logo">
                    <path d="M1.98863636,34.2369668 C7.04545455,33.7819905 12.1022727,34.9194313 16.4772727,37.4218009 C17.6704545,38.1042654 18.8068182,38.9004739 19.8863636,39.8104265 C18.2386364,41.1184834 16.5340909,42.9383886 16.5909091,45.1563981 C16.5909091,46.2369668 17.1590909,47.1469194 18.125,47.6587678 C19.1477273,48.2274882 20.4545455,48.2843602 21.5909091,48 C22.9545455,47.6587678 24.2045455,46.9763033 25.3977273,46.2369668 C27.0454545,49.0236967 28.0681818,52.1516588 28.4659091,55.3933649 C28.5795455,56.3601896 28.6363636,57.3270142 28.6363636,58.2938389 C15.0568182,57.6682464 3.97727273,47.4312796 1.98863636,34.2369668 Z M20.625,38.5023697 C19.4886364,37.5924171 18.2954545,36.7393365 16.9886364,36.056872 C15.7386364,35.3175355 14.375,34.6919431 13.0113636,34.2369668 C12.3295455,34.0094787 11.6477273,33.7819905 10.9090909,33.5545024 C10.8522727,33.5545024 10.7386364,33.4976303 10.625,33.4976303 C10.5113636,33.4407583 10.5113636,33.3838863 10.5113636,33.2701422 C10.4545455,33.0995261 10.3977273,32.8720379 10.3409091,32.7014218 C10.2272727,32.3601896 10.1136364,31.9620853 10,31.6208531 C9.14772727,28.7203791 8.69318182,25.7061611 8.80681818,22.6919431 C8.80681818,22.2938389 8.86363636,21.8388626 8.86363636,21.4407583 C12.1590909,21.8388626 15.3977273,22.9194313 18.3522727,24.5118483 C18.5795455,27.3554502 19.8863636,30.028436 21.9886364,31.9620853 C22.4431818,32.4170616 22.9545455,32.7582938 23.5227273,33.0995261 C23.9204545,33.3270142 24.3181818,33.6682464 24.6022727,34.0663507 C24.8295455,34.3507109 25,34.6350711 25.1136364,34.9763033 C25.1704545,35.2037915 25.3409091,35.6018957 25.2272727,35.8293839 C25.1704545,36 24.9431818,36.1706161 24.8295455,36.2843602 C24.6022727,36.4549763 24.375,36.6255924 24.1477273,36.7962085 C23.5795455,37.1943128 23.0113636,37.5924171 22.5,37.9905213 C22.1590909,38.2180095 21.8181818,38.4454976 21.5340909,38.6729858 C21.4772727,38.7298578 21.3636364,38.7867299 21.3068182,38.8436019 C21.25,38.8436019 21.25,38.9004739 21.1931818,38.9004739 C21.0795455,38.957346 21.1931818,38.957346 21.0795455,38.9004739 C20.9090909,38.7298578 20.7386364,38.6161137 20.625,38.5023697 Z M32.2159091,45.3838863 C32.1590909,45.5545024 32.0454545,45.7251185 31.9318182,45.8957346 C31.7613636,46.1800948 31.5909091,46.521327 31.4204545,46.8056872 C30.7386364,48.1706161 30.1136364,49.6492891 29.6590909,51.1279621 C29.5454545,51.5260664 29.4318182,51.9241706 29.3181818,52.2654028 C28.9772727,50.9004739 28.5227273,49.5924171 27.9545455,48.2843602 C27.6704545,47.6587678 27.3863636,47.0331754 27.0454545,46.4075829 C26.9886364,46.2369668 26.875,46.1232227 26.8181818,45.9526066 C26.7613636,45.8957346 26.5340909,45.5545024 26.5340909,45.4976303 C26.5340909,45.4407583 26.9318182,45.2701422 26.9886364,45.2132701 C27.1590909,45.0995261 27.3295455,44.985782 27.5,44.8720379 C28.0681818,44.4739336 28.6931818,44.0758294 29.2613636,43.7345972 C29.375,43.6208531 29.5454545,43.563981 29.7159091,43.450237 C29.8295455,43.3933649 29.9431818,43.3933649 30.1136364,43.450237 C30.3409091,43.507109 30.5681818,43.6208531 30.7386364,43.7345972 C31.25,44.0758294 31.5909091,44.5308057 31.9886364,44.985782 C32.0454545,45.042654 32.1022727,45.0995261 32.1590909,45.2132701 C32.2159091,45.2701422 32.2159091,45.2701422 32.2159091,45.3838863 Z M31.6477273,42.4834123 C31.8181818,42.4265403 31.9318182,42.3696682 32.1022727,42.3696682 L32.2159091,42.3696682 C32.3295455,42.3127962 32.4431818,42.1421801 32.5568182,42.0853081 C32.8409091,41.8578199 33.125,41.5734597 33.4090909,41.3459716 C32.5568182,40.3791469 31.1363636,40.9478673 30.1704545,41.4028436 C28.8636364,42.0853081 27.6704545,42.9383886 26.4204545,43.7345972 C25.1136364,44.5876777 23.8068182,45.4976303 22.3295455,46.1232227 C21.7045455,46.4075829 21.0227273,46.6350711 20.3409091,46.6350711 C19.6590909,46.6350711 18.9204545,46.521327 18.4090909,46.0663507 C17.5,45.1563981 18.3522727,43.6208531 18.9772727,42.8246445 C19.8295455,41.7440758 20.9659091,40.8341232 22.1022727,40.0379147 C23.2954545,39.1848341 24.5454545,38.3886256 25.6818182,37.478673 C26.0795455,37.1374408 26.4772727,36.7393365 26.6477273,36.2843602 C26.875,35.7156398 26.7613636,35.0900474 26.5909091,34.521327 C26.1931818,33.3270142 25.2840909,32.3601896 24.2613636,31.7345972 C23.0681818,30.9952607 22.0454545,29.9146919 21.3068182,28.7203791 C20.4545455,27.3554502 19.9431818,25.8199052 19.8863636,24.2274882 C19.8295455,23.0900474 19.9431818,21.9526066 20.1136364,20.8720379 C20.625,18.3696682 21.7613636,15.9810427 23.4659091,14.0473934 C24.3181818,13.0805687 25.2840909,12.2274882 26.3068182,11.4881517 C26.875,11.1469194 27.4431818,10.8056872 28.0113636,10.521327 C28.2954545,10.3507109 28.6363636,10.2369668 28.9204545,10.1232227 C29.0340909,10.0663507 29.2613636,9.95260664 29.375,9.95260664 C29.4886364,9.95260664 29.7159091,10.0663507 29.8295455,10.1232227 C32.2159091,11.1469194 34.3181818,12.7393365 35.9090909,14.8436019 C37.4431818,16.8909953 38.4659091,19.3364929 38.75,21.8957346 C38.8068182,22.521327 38.8636364,23.2037915 38.8636364,23.8293839 C38.8068182,23.8862559 38.8636364,24.056872 38.8636364,24.1706161 C38.8636364,24.3981043 38.8636364,24.6255924 38.8068182,24.8530806 C38.75,25.535545 38.5795455,26.1611374 38.3522727,26.7867299 L38.2954545,26.7298578 C38.4090909,26.7867299 38.1818182,27.2985782 38.125,27.4123223 C38.0113636,27.6966825 37.8977273,27.9810427 37.7272727,28.2085308 C37.4431818,28.7203791 37.1590909,29.1753555 36.8181818,29.6303318 C36.4772727,30.0853081 36.0795455,30.4834123 35.6818182,30.8815166 C35.5113636,31.0521327 35.2840909,31.2227488 35.1136364,31.3933649 C35,31.450237 34.8863636,31.563981 34.7727273,31.6208531 C34.6022727,31.7345972 34.4318182,31.6777251 34.2613636,31.6777251 C32.3863636,31.450237 30.4545455,30.9952607 28.8068182,30.028436 C27.1022727,29.0616114 25.7386364,27.4691943 25.3977273,25.535545 C25.3977273,25.4218009 25.3409091,25.3080569 25.3409091,25.1943128 C25.3409091,25.1374408 25.3409091,25.0236967 25.3409091,24.9668246 C25.3977273,24.9099526 25.3409091,24.6824645 25.3409091,24.6255924 C25.3409091,24.5118483 25.3409091,24.3981043 25.3977273,24.2843602 C25.4545455,23.8862559 25.625,23.4881517 25.7954545,23.0900474 C26.5909091,21.5545024 28.3522727,20.7582938 30.0568182,21.042654 C31.7613636,21.3270142 33.0681818,22.6919431 33.2954545,24.3981043 C33.5227273,25.8199052 32.9545455,27.2417062 31.6477273,27.9241706 C31.4772727,28.0379147 31.25,28.0947867 31.0795455,28.2085308 C30.9659091,28.2654028 30.9090909,28.2654028 30.9090909,28.3222749 C30.9090909,28.3791469 30.9659091,28.549763 30.9659091,28.6066351 C31.0227273,28.7772512 31.0227273,28.9478673 31.0795455,29.1184834 C31.1363636,29.3459716 31.1931818,29.5734597 31.25,29.8009479 C32.8409091,29.4028436 34.2045455,28.0379147 34.6590909,26.5023697 C35.2840909,24.3412322 34.4318182,22.0094787 32.6704545,20.6445498 C31.7045455,19.9052133 30.4545455,19.450237 29.2613636,19.450237 C26.9886364,19.450237 24.8295455,20.92891 24.0340909,23.0900474 C23.8068182,23.7156398 23.6931818,24.3412322 23.6931818,25.0236967 C24.1477273,25.0236967 24.6022727,25.0236967 25.0568182,25.0236967 C24.8863636,25.0236967 24.7159091,25.0236967 24.4886364,25.0236967 C24.2045455,25.0236967 23.9772727,25.0236967 23.6931818,25.0236967 C23.6931818,28.549763 26.7045455,31.1658768 29.8295455,32.3033175 C30.9659091,32.7014218 32.1022727,32.985782 33.2954545,33.2132701 C32.7840909,34.0663507 32.5,35.0331754 32.7840909,36 C33.0113636,36.7962085 33.5795455,37.478673 34.2045455,38.0473934 C35.6818182,39.3554502 37.5,40.2654028 38.9772727,41.5734597 C39.6590909,42.1421801 40.2272727,42.8246445 40.625,43.6208531 C40.9090909,44.2464455 41.1931818,45.2132701 40.7386364,45.8388626 C40.2840909,46.464455 39.375,46.6919431 38.6931818,46.8625592 C37.7840909,47.0331754 36.8181818,47.0900474 35.9659091,46.8056872 C34.0909091,45.8388626 33.2954545,43.6208531 31.6477273,42.4834123 Z M48.75,33.1563981 L48.8636364,33.2132701 C45.6818182,33.9526066 42.6136364,35.2606635 39.8863636,37.1374408 C39.4886364,37.4218009 39.1477273,37.6492891 38.75,37.9336493 C38.5795455,38.1042654 38.3522727,38.2180095 38.1818182,38.3886256 C38.125,38.3886256 38.125,38.4454976 38.0681818,38.4454976 C37.9545455,38.5023697 38.0113636,38.5592417 37.8977273,38.5023697 C37.7840909,38.4454976 37.6704545,38.3317536 37.5568182,38.2748815 C37.5568182,38.2748815 37.5568182,38.2748815 37.5,38.2180095 L37.5568182,38.2180095 C37.4431818,38.1042654 37.2727273,38.0473934 37.1590909,37.9336493 C37.2727273,37.9905213 37.3863636,38.1042654 37.5,38.1611374 C37.2159091,37.9336493 37.0454545,37.8199052 36.9318182,37.7630332 C36.9318182,37.7630332 36.9318182,37.7630332 36.875,37.7630332 C36.3068182,37.3649289 35.6818182,36.9668246 35.1704545,36.4549763 C34.6590909,36 34.2045455,35.3744076 34.3181818,34.6350711 C34.375,34.2369668 34.5454545,33.8957346 34.7727273,33.5545024 C34.9431818,33.2701422 35.1704545,32.985782 35.4545455,32.8151659 C36.1363636,32.3601896 36.8181818,31.7914692 37.3863636,31.1658768 C38.5795455,29.9146919 39.4318182,28.3791469 39.9431818,26.7298578 C40.1136364,26.2748815 40.1704545,25.7630332 40.2840909,25.3080569 C40.2840909,25.1943128 40.3409091,25.0805687 40.3409091,24.9668246 C40.3409091,24.8530806 40.3409091,24.7393365 40.4545455,24.6255924 C40.625,24.4549763 40.9090909,24.3412322 41.1363636,24.2274882 C41.9886364,23.7725118 42.8977273,23.3744076 43.8068182,22.9763033 C45.9090909,22.1232227 48.125,21.5545024 50.3977273,21.2701422 C50.6818182,24.5118483 50.3409091,27.8104265 49.4318182,30.8815166 C49.3181818,31.3364929 49.1477273,31.7345972 49.0340909,32.1895735 C48.9772727,32.4170616 48.8636364,32.5876777 48.8068182,32.8151659 C48.75,32.985782 48.6931818,33.0995261 48.75,33.1563981 Z M50.0176136,9.95260664 C51.6829545,11.8896682 51.6340909,11.7838863 53.2954545,13.9905213 C54.8863636,16.3222749 56.1363636,18.8815166 56.9886364,21.5545024 C57.8977273,24.4549763 58.3522727,27.5260664 58.2954545,30.5402844 C58.2954545,31.3364929 58.2386364,32.0758294 58.1818182,32.8720379 C55.625,32.5308057 53.0681818,32.5308057 50.5113636,32.92891 C51.7045455,29.4597156 52.2159091,25.8199052 52.0454545,22.1232227 C51.9886364,21.4407583 51.9318182,20.7582938 51.875,20.0758294 C51.875,19.9620853 51.875,19.7345972 51.8181818,19.6777251 C51.7613636,19.6777251 51.5909091,19.6777251 51.5340909,19.6777251 C51.4204545,19.6777251 51.3068182,19.6777251 51.1931818,19.7345972 C49.4318182,19.9052133 47.7840909,20.2464455 46.0795455,20.7014218 C44.1477273,21.2701422 42.2727273,22.0094787 40.5113636,22.9194313 C40.3977273,20.3601896 39.6590909,17.8009479 38.3522727,15.5829384 C37.1022727,13.3649289 35.2840909,11.4881517 33.1818182,10.0663507 C32.1022727,9.32701422 30.9659091,8.75829384 29.7159091,8.36018957 C29.5454545,8.30331754 29.4886364,8.2464455 29.3181818,8.30331754 C29.0909091,8.41706161 28.8068182,8.47393365 28.5795455,8.58767773 C27.9545455,8.81516588 27.3863636,9.09952607 26.8181818,9.44075829 C24.6022727,10.6919431 22.6704545,12.4549763 21.25,14.5592417 C19.8295455,16.7203791 18.9204545,19.1658768 18.6363636,21.7251185 C18.5795455,22.0663507 18.5795455,22.3507109 18.5795455,22.6919431 C15.3977273,21.042654 11.9886364,20.0758294 8.40909091,19.7345972 C8.23863636,19.7345972 7.95454545,19.6208531 7.78409091,19.6777251 C7.72727273,19.6777251 7.72727273,19.6777251 7.72727273,19.6777251 C7.67045455,19.7345972 7.72727273,19.9052133 7.67045455,19.9620853 C7.61363636,20.6445498 7.5,21.3270142 7.5,21.9526066 C7.38636364,23.7156398 7.5,25.4218009 7.72727273,27.1279621 C8.01136364,29.1184834 8.46590909,31.0521327 9.09090909,32.92891 C6.76136364,32.4739336 4.375,32.4170616 2.04545455,32.6445498 C1.98863636,31.7345972 1.93181818,30.8815166 1.93181818,29.971564 C1.93181818,14.3317536 14.6590909,1.59241706 30.2840909,1.59241706 C36.3636364,1.59241706 38.8511364,2.43867299 43.9693182,5.12815166 C44.5505682,5.59791469 48.4022727,8.30331754 50.0176136,9.95260664 Z M31.0795455,58.3507109 C30.9090909,58.3507109 30.7386364,58.3507109 30.5681818,58.3507109 C30.4545455,58.3507109 30.3409091,58.3507109 30.1704545,58.3507109 C30.1704545,55.1090047 30.8522727,51.8672986 32.1590909,48.9099526 C32.5,48.056872 32.8977273,47.2606635 33.3522727,46.464455 C34.2045455,47.3175355 35.2840909,47.943128 36.5340909,48.1137441 C37.7840909,48.2843602 39.2045455,48.1706161 40.4545455,47.7156398 C41.3068182,47.3744076 42.1590909,46.8056872 42.5568182,45.8957346 C43.0113636,44.8720379 42.7272727,43.6208531 42.2727273,42.5971564 C41.6477273,41.2890995 40.5681818,40.2654028 39.4318182,39.4123223 C41.3636364,37.8767773 43.5227273,36.6255924 45.8522727,35.7156398 C48.1818182,34.8056872 50.6818182,34.2938389 53.125,34.1232227 C54.7727273,34.0094787 56.3636364,34.0663507 58.0113636,34.2938389 C57.9545455,34.521327 57.9545455,34.6919431 57.8977273,34.9194313 C57.8977273,34.9194313 57.8977273,34.9194313 57.8977273,34.8625592 C57.8977273,34.8625592 57.8977273,34.8625592 57.8977273,34.9194313 C57.0454545,39.9241706 54.7159091,44.7582938 51.3636364,48.5687204 C48.0113636,52.436019 43.6363636,55.3364929 38.75,56.92891 C36.3636364,57.7251185 33.8636364,58.1800948 31.3636364,58.2938389 C31.1931818,58.3507109 31.1363636,58.3507109 31.0795455,58.3507109 Z M30,0 C13.4659091,0 0,13.478673 0,30.028436 C0,37.2511848 2.55681818,43.9052133 6.81818182,49.0805687 C7.95454545,50.5592417 9.26136364,51.8672986 10.7386364,53.0047393 C15.9659091,57.3838863 22.6704545,60 30,60 C46.5340909,60 60,46.521327 60,29.971564 C60,13.4218009 46.5340909,0 30,0 L30,0 Z" id="Fill-18"></path>
                </g>
            </g>
        </g>
    </g>
</svg>