<?xml version="1.0" encoding="utf-8"?>
<!-- Generator: Adobe Illustrator 22.1.0, SVG Export Plug-In . SVG Version: 6.00 Build 0)  -->
<svg version="1.1" id="Layer_1" xmlns="http://www.w3.org/2000/svg" xmlns:xlink="http://www.w3.org/1999/xlink" x="0px" y="0px"
	 viewBox="0 0 305 308" style="enable-background:new 0 0 305 308;" xml:space="preserve">
<style type="text/css">
	.st0{fill:none;stroke:#294652;}
</style>
<path class="st0" d="M301.5,191.2c-3.1,5.5-9.1,9.9-15.4,14.6c-6.4,4.7-13,9.6-16.5,15.8c-3.5,6.1-4.5,14.3-5.3,22.2
	c-0.9,7.8-1.7,15.2-4.9,20.7c-0.9,1.6-2,2.9-3.2,4c-6.2,5.6-16.4,5.6-26.3,5.7c-7.7,0-15.8,0.1-21.9,2.8
	c-6.2,2.7-11.7,8.7-16.9,14.4c-6.6,7.2-13.4,14.6-21.6,15.5c-8.1,0.8-16.3-5-24.3-10.7c-6.4-4.6-13.1-9.3-19.9-10.8
	c-6.4-1.4-14.2,0.2-21.7,1.7c-9.8,2-19.9,4-27.3-0.3c-7.5-4.3-10.8-14.1-13.9-23.6c-2.4-7.3-5-14.7-9.4-19.6
	c-4.7-5.2-12.1-8.6-19.2-11.9c-8.9-4.1-18.1-8.3-21.4-15.8c-3.4-7.5-0.4-17.2,2.5-26.5c2.3-7.4,4.7-15.1,4-21.9
	c-0.7-6.7-4.7-13.7-8.6-20.4c-4.9-8.6-10-17.5-8.3-25.7c0.3-1.6,1-3.2,1.9-4.8c3.1-5.5,9.1-9.9,15.4-14.6c6.4-4.7,13-9.6,16.5-15.8
	c3.5-6.1,4.5-14.3,5.3-22.2c0.9-7.8,1.7-15.2,4.9-20.7c0.9-1.6,2-2.9,3.2-4c6.2-5.6,16.4-5.6,26.3-5.7c7.7,0,15.8-0.1,21.9-2.8
	c6.2-2.7,11.7-8.7,16.9-14.4c6.6-7.2,13.4-14.6,21.6-15.5c8.1-0.8,16.3,5,24.3,10.7c6.4,4.6,13.1,9.3,19.9,10.8
	c6.4,1.4,14.2-0.2,21.7-1.7c9.8-2,19.9-4,27.3,0.3S239.8,35,243,44.5c2.4,7.2,5,14.7,9.4,19.6c4.7,5.2,12.1,8.6,19.2,11.9
	c8.9,4.1,18.1,8.3,21.4,15.8c3.4,7.5,0.4,17.2-2.5,26.5c-2.3,7.4-4.7,15.1-4,21.9c0.7,6.7,4.7,13.7,8.6,20.4
	c4.9,8.6,10,17.5,8.3,25.7C303.1,188,302.5,189.6,301.5,191.2L301.5,191.2z"/>
</svg>
